<svg width="362" height="97" viewBox="0 0 362 97" fill="none" xmlns="http://www.w3.org/2000/svg">
<path d="M74.852 39.728V65H68.696V49.844L63.044 65H58.076L52.388 49.808V65H46.232V39.728H53.504L60.596 57.224L67.616 39.728H74.852ZM98.2149 54.632C98.2149 55.208 98.1789 55.808 98.1069 56.432H84.1749C84.2709 57.68 84.6669 58.64 85.3629 59.312C86.0829 59.96 86.9589 60.284 87.9909 60.284C89.5269 60.284 90.5949 59.636 91.1949 58.34H97.7469C97.4109 59.66 96.7989 60.848 95.9109 61.904C95.0469 62.96 93.9549 63.788 92.6349 64.388C91.3149 64.988 89.8389 65.288 88.2069 65.288C86.2389 65.288 84.4869 64.868 82.9509 64.028C81.4149 63.188 80.2149 61.988 79.3509 60.428C78.4869 58.868 78.0549 57.044 78.0549 54.956C78.0549 52.868 78.4749 51.044 79.3149 49.484C80.1789 47.924 81.3789 46.724 82.9149 45.884C84.4509 45.044 86.2149 44.624 88.2069 44.624C90.1509 44.624 91.8789 45.032 93.3909 45.848C94.9029 46.664 96.0789 47.828 96.9189 49.34C97.7829 50.852 98.2149 52.616 98.2149 54.632ZM91.9149 53.012C91.9149 51.956 91.5549 51.116 90.8349 50.492C90.1149 49.868 89.2149 49.556 88.1349 49.556C87.1029 49.556 86.2269 49.856 85.5069 50.456C84.8109 51.056 84.3789 51.908 84.2109 53.012H91.9149ZM127.094 44.696C129.59 44.696 131.57 45.452 133.034 46.964C134.522 48.476 135.266 50.576 135.266 53.264V65H129.146V54.092C129.146 52.796 128.798 51.8 128.102 51.104C127.43 50.384 126.494 50.024 125.294 50.024C124.094 50.024 123.146 50.384 122.45 51.104C121.778 51.8 121.442 52.796 121.442 54.092V65H115.322V54.092C115.322 52.796 114.974 51.8 114.278 51.104C113.606 50.384 112.67 50.024 111.47 50.024C110.27 50.024 109.322 50.384 108.626 51.104C107.954 51.8 107.618 52.796 107.618 54.092V65H101.462V44.912H107.618V47.432C108.242 46.592 109.058 45.932 110.066 45.452C111.074 44.948 112.214 44.696 113.486 44.696C114.998 44.696 116.342 45.02 117.518 45.668C118.718 46.316 119.654 47.24 120.326 48.44C121.022 47.336 121.97 46.436 123.17 45.74C124.37 45.044 125.678 44.696 127.094 44.696ZM148.716 65.288C146.748 65.288 144.972 64.868 143.388 64.028C141.828 63.188 140.592 61.988 139.68 60.428C138.792 58.868 138.348 57.044 138.348 54.956C138.348 52.892 138.804 51.08 139.716 49.52C140.628 47.936 141.876 46.724 143.46 45.884C145.044 45.044 146.82 44.624 148.788 44.624C150.756 44.624 152.532 45.044 154.116 45.884C155.7 46.724 156.948 47.936 157.86 49.52C158.772 51.08 159.228 52.892 159.228 54.956C159.228 57.02 158.76 58.844 157.824 60.428C156.912 61.988 155.652 63.188 154.044 64.028C152.46 64.868 150.684 65.288 148.716 65.288ZM148.716 59.96C149.892 59.96 150.888 59.528 151.704 58.664C152.544 57.8 152.964 56.564 152.964 54.956C152.964 53.348 152.556 52.112 151.74 51.248C150.948 50.384 149.964 49.952 148.788 49.952C147.588 49.952 146.592 50.384 145.8 51.248C145.008 52.088 144.612 53.324 144.612 54.956C144.612 56.564 144.996 57.8 145.764 58.664C146.556 59.528 147.54 59.96 148.716 59.96ZM168.65 48.26C169.37 47.156 170.27 46.292 171.35 45.668C172.43 45.02 173.63 44.696 174.95 44.696V51.212H173.258C171.722 51.212 170.57 51.548 169.802 52.22C169.034 52.868 168.65 54.02 168.65 55.676V65H162.494V44.912H168.65V48.26ZM198.412 44.912L185.812 74.54H179.188L183.796 64.316L175.624 44.912H182.5L187.144 57.476L191.752 44.912H198.412ZM214.423 60.248H222.487V65H208.267V39.728H214.423V60.248ZM224.199 54.92C224.199 52.856 224.583 51.044 225.351 49.484C226.143 47.924 227.211 46.724 228.555 45.884C229.899 45.044 231.399 44.624 233.055 44.624C234.471 44.624 235.707 44.912 236.763 45.488C237.843 46.064 238.671 46.82 239.247 47.756V44.912H245.403V65H239.247V62.156C238.647 63.092 237.807 63.848 236.727 64.424C235.671 65 234.435 65.288 233.019 65.288C231.387 65.288 229.899 64.868 228.555 64.028C227.211 63.164 226.143 61.952 225.351 60.392C224.583 58.808 224.199 56.984 224.199 54.92ZM239.247 54.956C239.247 53.42 238.815 52.208 237.951 51.32C237.111 50.432 236.079 49.988 234.855 49.988C233.631 49.988 232.587 50.432 231.723 51.32C230.883 52.184 230.463 53.384 230.463 54.92C230.463 56.456 230.883 57.68 231.723 58.592C232.587 59.48 233.631 59.924 234.855 59.924C236.079 59.924 237.111 59.48 237.951 58.592C238.815 57.704 239.247 56.492 239.247 54.956ZM262.097 44.696C264.449 44.696 266.321 45.464 267.713 47C269.129 48.512 269.837 50.6 269.837 53.264V65H263.717V54.092C263.717 52.748 263.369 51.704 262.673 50.96C261.977 50.216 261.041 49.844 259.865 49.844C258.689 49.844 257.753 50.216 257.057 50.96C256.361 51.704 256.013 52.748 256.013 54.092V65H249.857V44.912H256.013V47.576C256.637 46.688 257.477 45.992 258.533 45.488C259.589 44.96 260.777 44.696 262.097 44.696ZM293.051 54.632C293.051 55.208 293.015 55.808 292.943 56.432H279.011C279.107 57.68 279.503 58.64 280.199 59.312C280.919 59.96 281.795 60.284 282.827 60.284C284.363 60.284 285.431 59.636 286.031 58.34H292.583C292.247 59.66 291.635 60.848 290.747 61.904C289.883 62.96 288.791 63.788 287.471 64.388C286.151 64.988 284.675 65.288 283.043 65.288C281.075 65.288 279.323 64.868 277.787 64.028C276.251 63.188 275.051 61.988 274.187 60.428C273.323 58.868 272.891 57.044 272.891 54.956C272.891 52.868 273.311 51.044 274.151 49.484C275.015 47.924 276.215 46.724 277.751 45.884C279.287 45.044 281.051 44.624 283.043 44.624C284.987 44.624 286.715 45.032 288.227 45.848C289.739 46.664 290.915 47.828 291.755 49.34C292.619 50.852 293.051 52.616 293.051 54.632ZM286.751 53.012C286.751 51.956 286.391 51.116 285.671 50.492C284.951 49.868 284.051 49.556 282.971 49.556C281.939 49.556 281.063 49.856 280.343 50.456C279.647 51.056 279.215 51.908 279.047 53.012H286.751Z" fill="#002E48"/>
<path d="M316.834 28.2811C317.314 27.7065 317.842 27.288 317.978 26.7505C318.083 26.3393 317.826 25.6582 317.479 25.3222C317.22 25.0723 316.537 25.0983 316.085 25.1622C315.773 25.2064 315.514 25.507 315.262 25.7233C311.25 29.1602 307.208 32.5686 303.273 36.0798C302.704 36.5873 302.143 37.9217 302.449 38.3076C303.404 39.5099 304.339 38.6622 305.128 38.0074C308.991 34.8012 312.852 31.5932 316.834 28.2811Z" fill="#002E48"/>
<path d="M317.027 44.2536C318.384 43.9584 320.543 44.475 320.229 42.7017C319.861 40.6205 317.845 41.482 316.628 41.6916C313.841 42.1717 311.096 42.8315 308.419 43.6185C307.821 43.7945 307.574 44.7937 307.165 45.4138C307.929 45.5959 308.77 46.0342 309.443 45.9143C311.95 45.4675 314.402 44.8373 317.027 44.2536Z" fill="#002E48"/>
<path d="M300.32 30.4417C300.589 27.9632 300.915 25.6537 300.986 23.315C301.004 22.725 300.21 22.0413 299.79 21.4006C299.284 21.9041 298.425 22.3297 298.333 22.9244C297.881 25.8708 297.572 28.853 297.364 31.8452C297.326 32.3943 297.988 33.0477 298.327 33.6529C298.865 33.2886 299.579 33.0303 299.893 32.5307C300.222 32.0078 300.168 31.2532 300.32 30.4417Z" fill="#002E48"/>
</svg>
